<?xml version="1.0" standalone="no"?>
<!DOCTYPE svg PUBLIC "-//W3C//DTD SVG 20010904//EN"
 "http://www.w3.org/TR/2001/REC-SVG-20010904/DTD/svg10.dtd">
<svg version="1.0" xmlns="http://www.w3.org/2000/svg"
 width="1080.000000pt" height="1080.000000pt" viewBox="0 0 1080.000000 1080.000000"
 preserveAspectRatio="xMidYMid meet">
<metadata>
Created by potrace 1.14, written by Peter Selinger 2001-2017
</metadata>
<g transform="translate(0.000000,1080.000000) scale(0.100000,-0.100000)"
fill="#000000" stroke="none">
<path d="M4436 6197 c-13 -29 -113 -252 -221 -497 -108 -245 -203 -458 -210
-475 -123 -271 -305 -691 -305 -701 0 -8 9 -14 19 -14 11 0 21 -3 23 -8 2 -4
22 -15 46 -24 l42 -17 14 32 c30 72 161 367 192 435 19 41 34 75 34 77 0 2 15
36 34 77 18 40 45 101 60 135 14 35 37 87 50 115 13 29 34 76 46 103 12 28 33
73 45 100 13 28 45 102 73 165 27 63 64 147 82 185 17 39 39 86 47 105 8 19
28 62 43 95 44 98 45 102 13 118 -15 8 -45 22 -66 31 l-38 15 -23 -52z"/>
<path d="M6093 6220 c-17 -5 -21 -38 -14 -127 1 -9 26 -13 89 -13 l87 0 -1
-652 c0 -359 1 -658 3 -664 2 -6 35 -10 81 -10 l77 1 3 237 2 237 55 0 c44 0
60 -5 78 -23 12 -13 78 -83 147 -156 69 -73 160 -169 202 -214 l77 -81 105 0
c120 -1 115 -4 113 85 l-2 55 -67 1 c-60 1 -69 4 -93 30 -152 165 -220 238
-277 298 -37 39 -67 76 -68 81 0 6 25 37 56 70 84 91 261 280 331 354 34 36
63 68 63 71 0 3 -44 6 -97 5 -77 0 -101 -3 -113 -16 -8 -9 -55 -60 -105 -114
-309 -338 -291 -322 -350 -321 l-50 2 -3 432 -2 432 -23 1 c-127 3 -290 3
-304 -1z"/>
<path d="M3065 5894 c-388 -238 -539 -330 -632 -386 -76 -46 -83 -53 -83 -82
0 -30 7 -35 252 -176 138 -80 274 -158 302 -174 28 -15 136 -77 239 -137 104
-60 192 -109 196 -109 10 0 85 120 79 125 -2 2 -184 108 -403 236 -220 127
-404 235 -409 239 -4 4 2 15 15 23 32 19 398 237 424 251 78 43 365 218 369
225 4 6 -70 132 -77 131 -1 0 -123 -75 -272 -166z"/>
<path d="M7421 5998 c-22 -34 -37 -66 -35 -70 4 -7 160 -100 614 -369 91 -53
174 -104 184 -111 18 -13 3 -24 -185 -133 -249 -145 -466 -271 -539 -313 -30
-17 -61 -36 -69 -41 -11 -7 -6 -21 24 -70 21 -34 41 -61 45 -61 4 0 90 48 191
106 101 59 201 116 222 128 21 11 46 26 56 31 558 321 521 297 521 331 0 31
-9 37 -357 250 -351 213 -611 372 -625 380 -4 3 -25 -23 -47 -58z"/>
<path d="M4825 5800 c-1 -3 -2 -34 -1 -70 l1 -65 64 -2 c35 -2 66 -5 69 -7 2
-3 5 -141 7 -308 2 -167 6 -316 9 -333 29 -137 73 -206 160 -249 51 -26 71
-30 161 -33 101 -3 168 9 227 40 43 22 110 80 139 120 16 22 30 38 30 36 2 -5
7 -103 8 -144 l1 -30 138 1 c75 1 139 2 142 3 7 2 3 121 -4 129 -4 3 -35 5
-69 4 -61 -2 -63 -1 -66 26 -1 15 -4 38 -6 52 -2 14 -3 207 -4 430 l-1 406
-146 -1 c-138 0 -147 -1 -153 -20 -4 -11 -6 -27 -5 -35 1 -8 2 -32 3 -53 l1
-38 65 3 65 3 1 -30 c0 -16 1 -141 1 -277 l0 -247 -30 -53 c-38 -65 -102 -129
-161 -159 -33 -17 -62 -23 -115 -23 -141 -1 -206 66 -220 229 -2 28 -4 196 -5
375 l-1 325 -151 0 c-83 0 -152 -2 -154 -5z"/>
</g>
</svg>
